<?xml version="1.0" standalone="no"?>
<!DOCTYPE svg PUBLIC "-//W3C//DTD SVG 20010904//EN"
 "http://www.w3.org/TR/2001/REC-SVG-20010904/DTD/svg10.dtd">
<svg version="1.0" xmlns="http://www.w3.org/2000/svg"
 width="600.000000pt" height="400.000000pt" viewBox="0 0 600.000000 400.000000"
 preserveAspectRatio="xMidYMid meet">
<metadata>
Created by potrace 1.15, written by Peter Selinger 2001-2017
</metadata>
<g transform="translate(0.000000,400.000000) scale(0.100000,-0.100000)"
fill="#000000" stroke="none">
<path d="M0 3560 c0 -242 2 -440 4 -440 1 0 14 10 27 23 27 25 31 53 10 67
-12 7 -12 11 -2 23 8 11 9 17 1 22 -8 5 -8 11 -1 19 7 9 7 17 -2 26 -6 7 -7
10 -1 7 6 -3 11 0 11 8 0 8 -4 12 -9 9 -4 -3 -8 -1 -8 4 0 6 7 13 16 16 8 3
12 11 9 16 -4 6 -1 18 7 27 11 14 10 15 -12 9 -14 -4 -20 -4 -14 1 6 4 19 23
28 41 16 30 16 32 -1 33 -12 1 -10 4 7 9 14 4 20 8 14 9 -13 1 -6 49 10 70 9
12 8 13 -4 6 -12 -7 -13 -6 -4 6 7 8 8 23 4 34 -5 13 -2 25 9 33 14 12 14 13
-4 8 -18 -6 -19 -5 -3 7 16 13 22 38 33 140 2 15 9 38 17 50 8 12 13 29 13 37
-1 8 7 39 16 68 l18 52 -95 0 -94 0 0 -440z"/>
<path d="M3658 3625 c-11 -12 -178 -51 -185 -44 -12 11 -136 20 -150 11 -7 -4
-33 -46 -57 -92 -24 -47 -63 -120 -86 -164 -23 -43 -39 -84 -36 -92 3 -8 -1
-14 -8 -14 -8 0 -17 -12 -21 -27 -9 -36 -9 -37 4 -41 6 -2 11 4 11 13 0 14 3
15 15 5 13 -11 15 -7 15 23 0 26 5 36 19 40 18 4 19 0 17 -52 -2 -31 0 -65 4
-76 9 -26 1 -55 -16 -55 -8 0 -14 -4 -14 -10 0 -5 -8 -10 -17 -10 -9 0 -13 3
-10 6 3 4 0 16 -8 26 -7 11 -11 28 -8 37 4 14 3 14 -6 1 -8 -12 -13 -12 -23
-2 -17 17 -31 15 -24 -3 3 -8 1 -15 -4 -15 -14 0 -12 -22 5 -57 9 -18 16 -64
18 -111 l2 -80 30 18 c99 61 453 137 688 147 128 6 128 6 100 24 -20 14 -29
15 -35 6 -6 -9 -8 -9 -8 1 0 6 -4 12 -10 12 -5 0 -7 -7 -4 -15 4 -8 2 -15 -4
-15 -6 0 -15 15 -21 33 -9 24 -14 28 -20 18 -7 -11 -10 -9 -16 8 -3 11 -11 21
-17 21 -7 0 -6 -5 1 -14 10 -11 7 -18 -11 -30 -20 -15 -23 -15 -26 -1 -4 19
-11 19 -36 0 -16 -12 -22 -12 -28 -2 -6 9 -8 9 -8 0 0 -18 -15 -16 -34 3 -15
14 -18 14 -40 -7 -17 -17 -35 -22 -69 -22 -25 0 -51 4 -57 8 -16 10 -80 14
-80 6 0 -11 -70 -39 -75 -31 -3 4 5 10 18 14 19 5 20 8 7 17 -13 9 -12 10 3 5
23 -8 65 24 60 44 -3 10 -1 11 4 4 10 -13 43 -26 43 -16 0 4 10 8 23 9 12 1
38 3 57 6 19 2 47 1 63 -4 30 -8 67 13 67 38 0 16 -12 17 -28 1 -9 -9 -12 -8
-12 5 0 9 6 17 14 17 8 0 13 7 11 18 -14 68 -17 75 -25 63 -11 -19 -33 -3 -27
20 3 12 1 17 -5 13 -6 -4 -9 -1 -7 5 3 7 9 11 14 9 5 -2 12 11 15 27 4 25 10
29 29 27 15 -2 21 0 16 7 -6 10 1 14 43 27 10 3 8 10 -7 30 -22 28 -20 44 7
44 12 0 13 3 4 12 -19 19 -15 23 21 23 27 0 33 -3 29 -17 -6 -25 15 -22 23 3
5 14 1 25 -11 33 -9 7 -14 18 -11 23 4 6 0 14 -9 17 -8 3 -12 2 -9 -4 3 -6 -4
-10 -17 -10 -13 0 -18 4 -13 8 6 4 11 28 10 53 0 41 -2 45 -26 47 -14 1 -28 0
-31 -3z"/>
<path d="M4509 3078 c-16 -31 -23 -38 -30 -27 -7 12 -9 12 -9 -1 -1 -11 -4
-10 -15 4 -15 20 -15 20 -15 0 -1 -22 -33 -64 -49 -64 -6 0 -11 -4 -11 -10 0
-5 -8 -10 -19 -10 -10 0 -24 -7 -32 -16 -7 -9 -21 -13 -35 -10 -13 4 -31 -2
-46 -13 -41 -33 -71 -35 -119 -9 -42 22 -54 23 -244 22 -167 -1 -227 -5 -366
-27 -164 -27 -278 -54 -353 -83 -21 -8 -41 -12 -44 -10 -3 3 12 13 34 21 69
28 83 36 49 30 -38 -8 -88 -37 -87 -50 0 -5 -6 -17 -14 -27 -12 -13 -3 -11 43
7 186 75 700 146 888 123 68 -9 125 -26 125 -38 0 -12 -101 -46 -270 -89 -185
-47 -401 -67 -623 -58 -122 5 -146 9 -192 31 -75 37 -115 92 -136 188 -17 78
-40 128 -59 128 -6 0 -9 -3 -9 -7 4 -23 -4 -41 -26 -65 -14 -15 -25 -33 -25
-40 0 -7 -10 -14 -23 -14 -20 -1 -22 2 -19 37 5 48 -3 50 -22 7 -20 -45 -43
-71 -54 -64 -5 3 -13 22 -16 42 -8 39 -29 42 -34 3 -2 -13 -9 -30 -14 -37 -16
-19 40 -125 110 -208 63 -75 144 -131 205 -141 30 -4 36 -9 32 -23 -7 -22 19
-92 56 -146 15 -23 30 -56 34 -74 10 -45 56 -131 67 -124 5 3 6 14 3 25 -7 20
9 25 33 10 10 -6 10 -10 -3 -21 -8 -7 -15 -18 -15 -25 0 -8 -5 -15 -11 -17
-25 -8 4 -50 47 -69 24 -11 44 -24 44 -29 0 -13 -204 -13 -250 -1 -62 17 -104
20 -117 10 -9 -8 -51 -7 -139 1 -100 10 -135 9 -171 0 -30 -9 -73 -11 -136 -6
-137 11 -473 18 -465 11 4 -4 50 -7 104 -6 64 0 106 -4 123 -14 17 -8 43 -12
69 -8 29 4 57 -1 94 -16 34 -13 83 -22 138 -25 50 -2 97 -10 115 -19 23 -12
53 -15 130 -12 55 2 116 6 135 9 125 19 204 25 221 16 13 -7 27 -5 53 11 48
28 105 23 125 -13 14 -24 13 -28 -10 -52 -24 -26 -49 -34 -49 -16 0 5 -7 7
-15 4 -11 -5 -13 -2 -9 10 3 9 10 16 15 16 5 0 9 7 9 15 0 21 -38 19 -85 -5
-27 -14 -50 -19 -72 -15 -28 5 -37 0 -78 -42 -43 -44 -47 -43 -27 6 3 10 1 12
-7 7 -10 -6 -9 -3 0 12 7 12 10 24 7 28 -13 12 -77 -51 -101 -101 -51 -103
-77 -167 -71 -176 3 -5 0 -9 -5 -9 -6 0 -11 -7 -11 -15 0 -8 -5 -25 -12 -38
-25 -50 -28 -58 -23 -67 3 -5 1 -11 -5 -15 -26 -16 6 98 58 206 58 123 85 189
80 195 -9 9 -59 -16 -53 -26 7 -11 -23 -2 -42 13 -16 12 -43 2 -43 -16 0 -8
-7 -21 -17 -28 -15 -13 -16 -11 -10 16 l7 30 -20 -24 c-15 -18 -20 -19 -20 -7
0 19 -9 20 -46 6 -32 -13 -47 2 -39 38 7 29 -6 28 -35 -3 -34 -37 -55 -34 -35
5 18 36 6 39 -35 10 -15 -11 -30 -17 -34 -13 -3 3 -6 -6 -6 -20 0 -33 -1 -33
-43 -4 -29 20 -32 26 -24 45 6 12 7 25 4 29 -10 10 -37 -18 -37 -38 0 -23 -25
-25 -34 -3 -9 23 -7 31 4 14 11 -17 15 -13 24 22 5 22 3 26 -9 22 -8 -4 -15
-10 -15 -15 0 -5 -13 -9 -30 -9 -22 0 -28 4 -24 15 5 11 2 13 -10 9 -15 -6
-15 -10 3 -40 12 -19 16 -36 10 -39 -5 -4 -9 -1 -9 5 0 6 -6 10 -13 9 -26 -3
-37 1 -37 16 0 8 -13 16 -32 20 -41 7 -78 3 -78 -7 0 -4 -4 -8 -10 -8 -15 0
-12 21 7 42 23 25 9 34 -22 14 -30 -20 -32 -46 -5 -71 13 -11 18 -25 14 -37
-4 -12 0 -18 11 -18 8 0 20 -12 26 -27 5 -14 17 -32 27 -39 9 -8 13 -13 7 -13
-14 0 -45 24 -45 35 0 5 -19 29 -41 54 -29 32 -39 52 -36 67 3 15 -1 23 -9 23
-8 0 -32 16 -54 36 -21 20 -46 37 -54 38 -8 1 -24 10 -35 20 -11 10 -28 16
-38 14 -15 -4 -13 -7 10 -18 15 -8 27 -21 27 -33 0 -10 9 -21 20 -24 11 -3 20
-9 20 -14 0 -5 -9 -9 -20 -9 -22 0 -27 -15 -7 -27 12 -7 16 -8 46 -11 12 -2
12 -5 3 -14 -17 -17 -15 -45 6 -57 16 -10 15 -10 -3 -11 -14 0 -26 13 -40 45
-18 41 -70 93 -88 87 -4 -1 -6 1 -5 5 4 14 -33 74 -41 68 -13 -7 -20 -44 -11
-50 5 -3 7 -15 5 -27 -3 -12 -1 -26 4 -32 4 -6 11 -22 14 -36 6 -24 5 -24 -8
-6 -8 11 -15 14 -15 8 0 -7 -4 -12 -10 -12 -5 0 -7 12 -4 28 4 22 0 31 -25 50
-17 12 -36 32 -42 45 -10 18 -8 18 14 -5 26 -28 47 -36 47 -19 0 5 -25 35 -55
66 -36 38 -60 55 -70 51 -11 -4 -26 10 -49 47 -44 69 -53 76 -93 68 -3 0 1 -9
10 -19 19 -21 48 -98 40 -105 -11 -11 9 -107 22 -107 7 0 16 -6 18 -12 4 -10
8 -9 16 2 9 12 11 10 11 -12 0 -15 -5 -30 -10 -33 -6 -4 -8 -16 -4 -27 4 -14
2 -18 -5 -14 -6 4 -11 13 -11 20 0 7 -11 23 -24 35 -27 26 -49 106 -36 131 8
16 -9 50 -26 50 -5 0 -18 24 -28 53 -33 93 -89 160 -213 259 -58 46 -100 68
-128 68 -7 0 20 -32 61 -72 41 -39 72 -73 69 -76 -2 -3 10 -12 27 -21 18 -9
34 -22 36 -29 2 -7 -24 5 -59 28 -74 48 -82 55 -49 45 17 -5 4 12 -45 59 -39
36 -77 66 -86 66 -41 0 -80 -13 -75 -26 3 -8 0 -11 -10 -7 -35 13 -8 -8 64
-50 84 -49 117 -77 88 -77 -9 0 -16 -4 -16 -8 0 -4 9 -8 19 -8 11 0 17 4 15 8
-3 4 1 8 8 8 20 0 -58 68 -110 95 -26 13 -42 24 -36 25 14 0 123 -49 110 -49
-6 -1 5 -17 24 -36 19 -19 32 -35 29 -35 -3 0 18 -24 46 -53 56 -58 127 -175
93 -154 -10 7 -24 27 -30 45 -7 17 -19 32 -28 32 -8 1 -32 7 -52 14 -41 15
-50 8 -18 -12 11 -7 20 -17 20 -23 0 -6 -15 2 -33 18 -21 17 -29 31 -23 35 6
4 1 8 -13 8 -17 0 -22 4 -17 16 3 8 2 12 -4 9 -6 -3 -10 -1 -10 4 0 6 5 11 12
11 7 0 -3 11 -22 25 -19 14 -39 25 -44 25 -6 0 -3 -7 8 -15 10 -7 15 -18 12
-24 -4 -5 -2 -12 4 -16 5 -3 10 -11 10 -17 0 -7 -6 -6 -15 2 -10 8 -15 9 -15
1 0 -6 9 -16 20 -23 27 -17 26 -32 -1 -18 -34 18 -33 4 2 -28 31 -29 35 -62 8
-62 -6 0 -8 7 -5 16 3 8 2 12 -4 9 -6 -3 -13 1 -16 10 -4 9 -13 14 -21 11 -11
-5 -13 1 -9 29 3 19 2 36 -3 39 -5 3 -12 20 -15 38 -4 18 -17 50 -30 71 -20
33 -26 37 -37 24 -12 -12 -15 -12 -26 2 -14 18 -17 3 -4 -18 8 -12 13 -12 24
-3 12 10 16 5 25 -30 14 -54 21 -168 11 -168 -9 0 -24 68 -21 88 2 6 -4 12
-13 12 -8 0 -15 7 -15 16 0 8 5 12 10 9 13 -8 13 -2 -4 30 -15 29 -31 18 -21
-15 4 -11 2 -20 -3 -20 -5 0 -12 28 -15 63 -3 34 -8 70 -12 80 -6 14 -3 16 11
11 15 -5 16 -4 4 4 -8 6 -17 9 -22 6 -4 -2 -12 5 -18 16 -6 11 -23 26 -38 34
-20 10 -33 30 -47 72 -26 78 -120 171 -220 219 -113 55 -263 74 -340 45 -75
-29 -110 -74 -123 -162 -6 -44 -11 -53 -32 -58 l-25 -6 -3 -1362 -2 -1362 839
0 c739 0 840 2 851 15 12 14 15 14 30 0 13 -12 44 -15 147 -15 121 0 131 1
126 18 -3 12 4 23 22 32 35 19 130 17 153 -2 9 -9 22 -13 29 -11 6 2 14 -1 18
-6 8 -14 26 -14 22 0 -1 6 14 20 33 31 26 15 39 17 51 9 13 -7 19 -6 23 4 3 8
12 15 21 15 22 0 20 -59 -2 -76 -15 -11 11 -13 169 -14 122 0 196 4 213 12 19
9 28 9 37 0 7 -7 21 -12 33 -11 19 0 19 1 -2 9 -29 12 -29 16 3 33 17 9 23 17
15 21 -6 4 -11 3 -11 -2 0 -5 -14 -12 -30 -14 -20 -3 -27 -1 -21 5 6 6 5 15
-5 24 -8 9 -12 24 -8 38 3 13 2 30 -2 37 -5 7 -9 28 -10 46 -2 32 -1 33 27 27
18 -4 29 -3 29 4 0 6 -5 11 -12 11 -6 0 -8 3 -5 7 15 14 -26 43 -52 37 l-26
-5 22 19 c12 10 55 32 97 48 42 16 76 32 76 37 0 4 -16 0 -36 -8 -48 -20 -66
-19 -62 2 2 10 -3 18 -9 19 -7 1 -15 2 -17 3 -3 0 2 13 9 28 13 25 13 28 -3
34 -12 4 -21 -1 -30 -17 -22 -41 -23 -26 -1 28 27 68 30 73 41 57 7 -10 8 -5
5 16 -6 33 14 75 44 93 17 11 19 9 20 -15 1 -16 3 -37 4 -48 1 -11 5 -55 9
-98 4 -42 12 -75 16 -72 8 5 5 75 -5 103 -2 6 0 12 5 12 5 0 4 15 -1 35 -6 20
-9 52 -7 72 3 34 6 37 60 57 76 29 87 41 13 16 -70 -24 -71 -24 -55 -5 10 12
10 15 -2 15 -14 0 -22 56 -19 137 0 12 -4 25 -9 28 -7 4 -6 13 1 27 8 15 8 19
0 14 -6 -4 -11 -4 -11 1 0 10 48 33 68 33 7 0 46 13 85 29 40 16 87 34 105 41
17 7 32 17 32 22 0 5 -9 4 -19 -2 -22 -11 -26 -7 -31 35 -7 67 -5 90 7 88 32
-7 61 18 92 81 19 36 39 66 45 66 6 0 4 -5 -4 -10 -12 -8 -12 -10 -1 -10 11 0
11 -3 1 -15 -8 -10 -9 -15 -1 -15 7 0 8 -8 1 -25 -5 -14 -7 -25 -5 -25 3 0 -3
-12 -12 -27 -17 -26 -17 -27 1 -20 16 6 17 4 11 -20 -6 -24 -5 -25 11 -12 16
13 16 12 0 -18 -12 -24 -13 -33 -4 -33 9 0 9 -3 0 -12 -8 -8 -15 -8 -27 2 -8
7 -15 8 -15 2 0 -5 -10 -13 -22 -17 -23 -8 -23 -8 3 -12 14 -2 45 1 69 6 25 5
46 8 48 6 2 -1 -8 -26 -22 -54 -15 -28 -25 -54 -24 -58 6 -23 -17 -76 -42
-100 -16 -15 -27 -30 -24 -34 6 -10 44 1 44 13 0 5 5 6 10 3 6 -3 10 5 10 19
0 29 10 38 29 27 9 -6 11 -19 6 -39 -7 -32 -27 -44 -102 -60 -37 -9 -42 -7
-51 12 -8 18 -9 17 -8 -11 1 -32 2 -33 36 -27 19 4 50 13 69 20 18 8 37 14 42
14 8 0 3 -96 -7 -112 -4 -5 -6 -28 -6 -50 1 -22 -3 -49 -8 -61 -8 -21 -8 -21
-16 -3 -4 11 -2 27 5 38 16 26 6 35 -16 16 -10 -9 -25 -13 -33 -10 -8 3 0 -12
18 -32 32 -37 39 -71 15 -71 -6 0 -15 -3 -19 -7 -4 -4 -13 0 -20 10 -12 15
-12 15 -7 -5 3 -14 1 -23 -6 -23 -6 0 -11 15 -12 33 -1 17 -5 43 -9 57 -6 16
-7 7 -3 -27 4 -34 1 -58 -6 -67 -7 -8 -8 -16 -2 -18 21 -7 17 -88 -5 -88 -13
0 -14 -3 -5 -13 8 -10 7 -28 -5 -68 -9 -30 -20 -58 -25 -63 -5 -6 -9 -16 -9
-24 0 -11 3 -12 14 -3 14 12 46 5 46 -9 0 -11 -54 -30 -92 -33 -10 -1 -18 -6
-18 -13 0 -6 -17 -14 -37 -18 -41 -6 -63 10 -63 45 0 10 -4 20 -8 23 -5 3 -8
-3 -7 -12 1 -9 5 -52 10 -94 4 -43 12 -78 17 -78 6 0 7 8 4 17 -6 17 -5 17 8
1 7 -10 21 -18 30 -18 14 0 12 7 -13 37 -16 20 -28 39 -26 43 2 4 32 15 66 25
l62 19 18 -23 c21 -26 16 -45 -12 -38 -19 5 -55 -36 -45 -52 3 -4 161 -9 351
-9 333 -1 345 -1 345 18 0 10 -4 22 -10 25 -5 3 -10 11 -10 16 0 6 5 7 10 4 6
-3 10 3 10 14 0 12 -7 21 -15 21 -8 0 -15 7 -15 16 0 8 5 12 10 9 6 -3 10 -2
10 4 0 5 -6 12 -12 14 -10 4 -9 8 2 16 13 10 13 12 0 21 -13 9 -13 11 0 19 8
6 16 9 17 7 1 -1 5 -33 9 -72 3 -38 7 -78 9 -89 2 -11 4 -26 4 -32 1 -10 60
-13 264 -12 144 0 255 3 247 6 -36 12 -80 34 -85 43 -4 6 1 13 10 16 14 6 14
9 0 31 -24 37 -8 42 23 7 15 -16 48 -47 74 -67 l46 -37 102 0 c61 0 99 4 95
10 -3 5 -7 26 -9 48 -6 60 -26 123 -40 128 -11 4 -11 10 -2 30 6 13 15 22 21
21 5 -2 21 -33 35 -69 14 -36 30 -72 37 -79 15 -19 19 -51 9 -68 -6 -9 -5 -12
2 -7 6 3 13 2 17 -4 4 -6 88 -10 226 -10 241 0 245 1 215 58 -9 17 -13 38 -10
46 4 12 0 14 -18 11 -17 -4 -30 3 -50 26 -16 18 -28 27 -28 21 0 -9 -7 -8 -25
0 -14 6 -25 15 -25 20 0 4 -6 8 -13 8 -7 0 -23 7 -35 16 -30 21 -17 40 14 20
30 -21 37 -20 32 2 -4 12 28 -6 92 -54 99 -74 122 -99 134 -146 l6 -27 440 -1
440 0 -2 682 -3 683 -30 3 c-16 2 -35 8 -42 14 -6 5 -26 10 -43 10 -18 1 -26
4 -19 9 16 9 -29 68 -53 68 -17 1 -31 -26 -26 -50 2 -8 -2 -13 -8 -12 -7 1
-10 -9 -8 -26 3 -25 1 -28 -24 -24 -26 3 -26 3 -4 -8 23 -13 30 -29 11 -29 -8
0 -10 -12 -6 -35 5 -33 4 -34 -15 -24 -13 7 -18 17 -15 30 3 12 1 17 -5 12 -8
-4 -9 8 -5 36 l5 42 -23 -15 c-21 -14 -27 -13 -59 2 -20 10 -33 21 -30 25 4 4
2 7 -4 7 -6 0 -14 9 -17 20 -3 11 -13 20 -22 20 -10 0 -14 6 -10 19 3 15 1 18
-12 14 -14 -4 -14 -3 -1 6 22 16 60 14 60 -4 0 -8 4 -15 9 -15 10 0 9 32 -1
40 -4 3 1 11 12 18 15 9 18 9 14 -1 -3 -9 5 -13 26 -12 25 0 30 4 30 24 0 16
-4 21 -14 18 -10 -4 -13 -1 -9 9 3 7 0 14 -6 14 -6 0 -11 -4 -11 -10 0 -5 -5
-10 -11 -10 -8 0 -8 4 0 14 9 11 9 15 -1 20 -7 3 -3 4 10 2 12 -2 20 0 16 5
-8 13 -38 11 -53 -3 -11 -11 -12 -10 -6 1 4 8 2 17 -5 21 -9 6 -26 -7 -54 -41
-22 -27 -44 -49 -50 -49 -6 0 -4 -5 4 -11 10 -7 11 -12 4 -15 -6 -3 -19 -11
-29 -18 -15 -11 -25 -9 -64 11 -55 29 -77 48 -43 38 12 -3 22 -2 22 3 0 5 -9
12 -19 15 -19 5 -19 6 -3 41 10 20 23 34 30 31 6 -2 12 3 12 11 0 8 -4 13 -8
10 -5 -3 -9 2 -9 10 0 9 6 13 16 9 9 -3 4 6 -11 20 -31 29 -35 30 -35 10 0 -8
4 -12 8 -9 4 2 10 0 13 -5 12 -19 -11 -19 -40 0 -16 10 -23 19 -16 19 7 0 11
4 8 9 -3 5 -19 7 -36 5 -16 -2 -30 1 -30 6 0 6 5 10 10 10 6 0 10 5 10 11 0 8
-4 9 -13 0 -8 -6 -17 -8 -20 -4 -4 3 -7 3 -7 -1 0 -4 12 -18 26 -31 21 -19 23
-25 10 -25 -9 0 -16 -5 -16 -10 0 -7 7 -7 21 0 28 16 77 -14 58 -36 -17 -21
-32 -17 -26 7 5 19 2 20 -34 14 -32 -6 -39 -4 -39 9 0 9 -4 16 -10 16 -14 0
-12 -33 3 -49 7 -8 8 -15 2 -17 -6 -3 -9 -90 -7 -244 3 -228 3 -240 -15 -234
-17 5 -17 5 0 -9 9 -8 17 -27 17 -43 l-1 -29 -19 24 c-24 28 -28 86 -5 77 20
-7 19 8 0 24 -13 11 -13 15 -3 22 11 6 10 10 -1 17 -8 5 -11 16 -8 24 3 8 0
20 -6 26 -8 8 -6 11 7 11 16 0 16 3 -3 34 l-22 34 22 -5 c15 -4 20 -3 15 5 -4
7 -14 12 -22 12 -8 0 -14 5 -14 10 0 6 10 10 23 10 21 1 21 1 -6 21 -15 11
-25 25 -21 30 3 5 10 7 15 4 5 -4 14 -3 20 1 7 4 0 17 -18 36 -26 28 -26 30
-5 24 12 -4 22 -3 22 2 0 5 -10 14 -22 21 l-23 12 23 -5 c12 -2 22 -1 22 2 0
3 -10 17 -22 30 -18 20 -19 24 -6 19 23 -8 35 13 14 25 -20 11 -21 28 -1 28
20 0 19 6 -4 29 -20 20 -20 20 -24 -7 -3 -24 -4 -23 -6 7 -1 31 1 33 27 27 24
-6 25 -5 10 7 -12 10 -16 24 -13 48 3 19 7 59 9 89 3 30 6 56 6 58 0 1 8 2 18
2 14 0 15 2 2 10 -8 5 -18 10 -22 10 -6 0 -22 -57 -17 -62 1 -2 -3 -13 -9 -25
-9 -16 -9 -23 1 -26 9 -4 9 -8 -2 -15 -7 -5 -11 -14 -7 -20 3 -6 0 -13 -6 -15
-10 -4 -10 -6 0 -6 6 -1 12 -8 12 -17 0 -9 -5 -12 -12 -8 -8 5 -10 -20 -5 -99
6 -102 -4 -142 -18 -77 -4 17 -10 28 -15 25 -11 -7 -24 33 -22 67 1 15 -9 55
-23 89 -13 34 -22 66 -18 72 3 5 2 7 -4 4 -10 -6 -57 35 -49 44 2 2 -5 13 -15
23 -19 19 -19 19 -19 -22 0 -23 4 -42 8 -42 14 0 52 -89 46 -105 -4 -9 0 -23
8 -33 16 -20 40 -72 32 -72 -2 0 -17 7 -32 16 -27 16 -27 16 -5 -2 12 -11 37
-30 57 -44 57 -42 75 -89 85 -225 5 -67 10 -125 11 -130 5 -21 0 -55 -7 -55
-9 0 -74 111 -93 158 -11 29 -11 35 1 43 9 6 10 9 2 9 -13 0 -11 109 3 132 6
10 4 11 -7 1 -14 -14 -30 -17 -27 -5 5 17 -13 92 -22 92 -6 0 -10 -19 -10 -42
0 -24 -5 -61 -10 -83 -5 -25 -5 -44 0 -49 6 -6 4 -16 -4 -25 -8 -9 -15 -19
-15 -23 -1 -5 -4 -9 -8 -10 -5 -2 -15 23 -23 55 -9 32 -20 61 -26 65 -17 11
-43 72 -38 86 3 7 -2 20 -10 28 -16 17 -15 50 1 55 6 2 9 13 6 23 -4 14 2 22
21 30 14 5 26 12 26 14 0 3 -6 3 -14 0 -8 -3 -17 0 -22 7 -4 7 -3 10 4 5 6 -3
13 -2 17 4 3 5 2 10 -4 10 -5 0 -15 32 -21 70 -8 48 -16 70 -26 70 -8 0 -14 5
-14 10 0 6 -5 10 -11 10 -7 0 -6 -9 4 -23 9 -13 16 -50 18 -83 1 -32 8 -66 15
-75 12 -13 10 -20 -14 -48 l-27 -32 -17 33 c-9 18 -24 50 -32 71 -8 20 -21 37
-29 37 -14 0 -32 28 -23 37 2 3 16 -3 30 -12 32 -21 33 -16 2 30 -15 21 -26
30 -29 23 -3 -9 -16 -1 -36 20 -17 19 -29 38 -26 43 8 11 80 12 120 1 17 -5
41 -6 55 -2 24 6 23 7 -9 13 -18 4 -61 7 -95 7 -64 0 -93 10 -82 29 5 7 -2 11
-18 11 -16 0 -25 -5 -23 -12 1 -9 -10 -12 -35 -10 -30 3 -38 0 -38 -13 0 -9
-5 -13 -11 -10 -6 4 -8 14 -4 22 3 9 -2 27 -10 40 -13 20 -19 22 -37 12 -20
-11 -20 -13 -5 -24 9 -7 17 -22 17 -35 0 -19 -4 -21 -27 -16 -24 5 -26 4 -12
-6 9 -7 21 -30 28 -50 7 -21 16 -38 20 -38 5 0 16 -41 27 -90 10 -50 22 -90
27 -90 4 0 5 -10 2 -21 -5 -13 -3 -19 3 -15 5 3 22 -4 36 -15 15 -12 29 -20
31 -18 2 2 -2 23 -8 46 -14 55 -4 63 33 28 22 -21 33 -45 42 -88 10 -45 19
-65 40 -80 15 -11 25 -24 22 -29 -3 -5 -11 -5 -17 1 -9 7 -12 -2 -12 -34 0
-24 3 -38 7 -32 8 13 7 14 37 -83 19 -63 68 -180 80 -190 3 -3 6 -9 6 -15 0
-5 21 -53 47 -105 25 -52 49 -110 53 -128 5 -26 11 -32 33 -32 25 0 25 -1 6
-15 -18 -14 -18 -14 0 -15 12 0 16 -5 13 -14 -3 -8 -2 -16 3 -18 6 -2 11 -25
12 -53 l3 -50 -65 -32 c-36 -17 -79 -33 -95 -35 -26 -2 -30 1 -33 22 -3 24 -3
24 11 5 18 -24 32 -15 22 15 -5 15 -12 19 -26 15 -15 -5 -19 -1 -19 18 0 16
-7 26 -20 30 -11 3 -20 10 -20 15 0 14 34 25 38 13 2 -6 8 -11 14 -11 7 0 6 5
-1 14 -9 11 -9 15 1 20 16 7 -33 -1 -59 -10 -11 -5 -14 -4 -8 2 6 6 36 18 67
28 36 12 55 23 50 30 -4 6 -7 15 -7 21 0 14 -46 23 -77 14 -15 -4 -30 -3 -33
2 -4 5 -15 9 -27 9 -16 0 -19 5 -15 21 4 15 2 18 -7 10 -9 -8 -24 -2 -54 21
-47 36 -53 55 -19 61 22 3 22 4 -4 14 -14 6 -26 20 -27 30 -5 63 0 138 10 150
9 11 9 17 -3 24 -8 5 -17 9 -20 9 -3 0 -25 -40 -47 -90 -23 -50 -46 -90 -52
-90 -17 0 -42 48 -39 77 2 15 0 34 -4 41 -5 7 -3 12 4 12 8 0 8 4 2 12 -8 10
-10 83 -3 83 1 0 4 19 6 42 4 36 2 41 -12 36 -14 -5 -14 -3 -3 15 14 23 29 20
77 -15 18 -14 36 -23 38 -20 3 3 -8 14 -24 26 -38 26 -58 94 -45 148 5 21 15
37 21 36 6 -2 16 13 22 32 23 69 3 58 -42 -24 -25 -46 -49 -78 -52 -72 -4 6
-9 43 -11 83 -3 40 -7 94 -10 121 -3 27 -1 47 4 47 5 0 30 -16 55 -35 l45 -34
-27 38 c-15 21 -30 37 -33 35 -11 -6 -40 77 -38 105 2 25 -11 69 -31 104 -8
13 -7 17 5 17 12 0 12 3 -2 18 -12 13 -22 16 -30 9 -10 -7 -13 -4 -13 12 0 11
-4 21 -10 21 -12 0 -11 8 -14 -125 -3 -108 -12 -219 -21 -261 -3 -12 -7 -39
-10 -60 -4 -21 -10 -55 -15 -74 -5 -19 -12 -51 -15 -70 -3 -19 -10 -60 -16
-90 -6 -30 -17 -87 -24 -126 -7 -39 -18 -80 -24 -91 -5 -11 -8 -23 -4 -26 3
-4 -1 -26 -10 -49 -8 -24 -15 -50 -15 -58 1 -8 -5 -42 -12 -75 -8 -33 -13 -64
-11 -69 1 -4 -4 -18 -12 -30 -8 -11 -17 -33 -21 -49 -4 -18 -13 -27 -26 -27
-24 0 -24 -1 -4 97 16 78 21 104 48 218 24 103 55 249 60 280 13 81 49 276 62
339 9 39 18 87 20 106 3 19 6 43 8 53 2 9 0 17 -5 17 -5 0 -9 -12 -9 -26 0
-14 -4 -23 -9 -19 -9 5 -6 73 4 123 3 13 1 22 -6 22 -8 0 -7 5 2 16 10 13 10
17 -2 25 -12 8 -12 10 1 19 13 9 13 11 0 20 -13 9 -13 10 0 10 13 0 13 1 0 10
-9 6 -17 5 -22 -3 -5 -8 -8 -6 -8 6 0 14 5 17 21 12 15 -5 19 -4 15 4 -4 6
-14 11 -22 11 -12 0 -13 8 -9 34 4 19 2 36 -3 40 -6 4 -10 -38 -11 -113 -1
-66 -4 -129 -6 -141 -2 -12 -7 -86 -11 -163 -3 -78 -13 -189 -22 -247 -9 -58
-15 -138 -15 -177 0 -40 -3 -70 -8 -67 -5 3 -9 24 -9 47 0 23 -6 53 -13 67
-12 25 -75 62 -89 53 -5 -2 -8 1 -8 6 0 6 7 11 15 11 9 0 20 12 26 26 9 26 10
26 23 8 20 -27 31 -10 12 18 -15 21 -15 23 7 35 12 7 17 12 11 13 -14 0 -7 72
8 81 6 4 8 19 6 33 -4 19 -1 26 11 27 10 0 12 2 4 6 -7 2 -13 9 -13 14 0 6 5
7 10 4 6 -3 10 -1 10 4 0 6 -6 11 -12 11 -10 0 -10 2 -1 8 7 4 11 33 11 73 -1
37 2 71 6 78 4 6 2 11 -4 11 -6 0 -8 5 -4 11 9 15 5 164 -5 209 -9 39 -9 40
-45 -75 -14 -44 -23 -66 -19 -50 14 68 17 94 17 180 1 74 -3 98 -21 137 -13
26 -28 50 -34 53 -6 4 -3 -7 6 -25 9 -17 14 -37 12 -43 -2 -7 -15 12 -28 41
-13 29 -32 55 -41 58 -10 3 -18 12 -18 19 0 16 -34 38 -44 28 -10 -11 -55 38
-49 53 3 8 -3 24 -12 34 -23 25 -14 36 15 20 14 -8 39 -9 69 -5 l46 7 -29 15
c-22 12 -26 17 -15 24 23 14 76 11 83 -6 3 -10 -1 -15 -11 -15 -9 0 -14 -3
-10 -6 11 -12 49 8 43 22 -3 8 1 17 10 21 14 5 12 8 -7 19 -13 7 -21 13 -16
14 4 0 1 13 -8 29 -15 30 -7 49 15 36 13 -8 13 20 1 63 -9 31 -9 33 12 26 12
-3 30 -14 41 -23 17 -15 18 -15 15 4 -3 16 1 20 19 19 20 -1 23 2 18 22 -6 21
-4 23 16 15 24 -9 27 -31 14 -101 -4 -19 2 -8 13 25 l20 60 65 23 c81 29 136
68 180 129 33 45 34 51 33 130 -1 46 -2 83 -4 83 -1 0 -12 -19 -24 -42z
m-4300 -340 c6 -7 24 -14 39 -15 116 -9 187 -34 216 -75 13 -19 19 -20 41 -10
19 9 24 9 22 -1 -1 -7 15 -14 38 -18 22 -3 30 -7 18 -8 -21 -1 -44 -21 -25
-21 13 0 62 -47 62 -59 0 -19 -74 -6 -100 17 -14 12 -30 22 -36 22 -7 0 -19
11 -28 25 -21 31 -78 61 -134 68 -25 3 -54 15 -68 28 -16 15 -39 23 -71 25
-42 3 -88 8 -103 13 -3 1 2 6 10 11 22 14 104 12 119 -2z m3570 -153 c7 -19
17 -35 22 -35 5 0 9 -6 9 -14 0 -18 27 -29 33 -13 8 22 26 -7 29 -48 2 -28 -1
-39 -9 -37 -7 1 -13 -7 -13 -17 0 -21 20 -45 51 -61 10 -6 19 -20 19 -30 0
-16 -7 -20 -30 -20 -23 0 -33 -6 -42 -25 -6 -14 -14 -22 -17 -17 -14 20 -72
53 -82 46 -8 -4 -9 1 -4 17 22 67 28 234 11 272 -5 9 -4 17 1 17 5 0 15 -16
22 -35z m188 -343 c51 -45 77 -100 64 -134 -6 -13 -10 -17 -10 -10 -2 24 -60
39 -141 36 -73 -3 -78 -2 -85 19 -7 22 -7 21 -14 -4 -5 -23 -9 -25 -39 -17
-31 8 -32 9 -16 33 8 13 22 21 29 19 8 -3 16 4 20 16 5 15 12 19 26 15 13 -5
19 -2 19 10 0 9 4 14 9 10 6 -3 13 1 18 9 8 14 46 34 68 35 6 1 29 -16 52 -37z
m13 -168 c7 -7 9 -18 5 -24 -3 -5 1 -10 9 -10 11 0 16 -10 16 -32 0 -18 7 -46
15 -61 17 -34 5 -67 -24 -67 -11 0 -21 -7 -25 -15 -6 -16 -46 -16 -59 0 -6 6
-10 6 -14 -2 -6 -17 -24 -17 -20 -1 1 7 -5 13 -13 14 -8 0 -23 2 -33 2 -12 1
-15 6 -11 15 6 9 4 9 -8 -1 -18 -14 -98 -26 -98 -14 0 6 -13 7 -78 3 -7 -1
-10 -5 -7 -11 3 -5 1 -10 -4 -10 -6 0 -11 5 -11 10 0 6 -8 10 -17 10 -10 0
-27 7 -38 15 -18 14 -18 16 -3 32 14 13 20 14 32 4 10 -8 32 -10 63 -7 26 3
75 9 108 12 68 7 119 30 155 70 22 24 22 26 5 20 -30 -11 -146 -15 -139 -5 3
5 16 9 30 9 14 0 23 4 20 9 -3 4 -18 6 -32 3 -19 -3 -25 -1 -20 7 4 6 15 11
24 11 9 0 35 7 57 14 50 18 101 18 115 0z m-2501 -39 c11 -19 16 -35 11 -35
-6 0 -10 -7 -10 -16 0 -8 -5 -12 -10 -9 -6 4 -8 10 -5 14 2 5 -27 8 -66 7 -58
-1 -69 -4 -66 -16 6 -25 -20 -42 -53 -35 -20 4 -30 3 -30 -5 0 -7 -7 -10 -15
-6 -11 4 -15 -2 -15 -25 0 -36 -23 -36 -28 0 -2 12 -15 27 -29 34 -22 10 -28
8 -43 -10 -11 -14 -26 -21 -44 -19 -14 2 -44 0 -66 -4 -24 -4 -43 -3 -50 4 -8
8 -13 7 -19 -2 -12 -20 -84 -33 -194 -37 -70 -2 -103 -7 -115 -18 -12 -10 -35
-14 -74 -13 -31 1 -55 -2 -52 -6 3 -4 -6 -4 -20 2 -17 6 -27 6 -31 -1 -4 -5
-16 -7 -27 -3 -14 4 -18 2 -14 -5 4 -6 2 -9 -6 -6 -8 3 -22 -1 -33 -9 -18 -13
-24 -12 -55 7 -19 11 -37 22 -39 23 -2 2 7 17 19 34 15 21 25 28 30 20 7 -12
28 6 28 25 0 5 6 11 13 14 6 2 9 -1 6 -6 -3 -5 3 -15 15 -22 11 -7 17 -8 14
-3 -3 6 12 13 36 17 24 4 48 12 55 17 7 5 21 7 32 3 11 -3 46 -1 78 5 32 6 93
13 136 16 42 3 96 11 118 19 22 8 80 19 127 25 48 6 116 18 152 26 103 23 147
27 154 16 4 -7 15 -6 34 4 15 7 50 14 79 14 48 0 52 -2 72 -35z m2901 -265
c-3 -3 -6 -45 -6 -95 0 -49 -2 -128 -3 -175 -1 -47 3 -134 8 -193 7 -69 7
-117 1 -133 -13 -32 -13 -35 2 -32 7 2 14 -7 16 -19 4 -26 -15 -31 -24 -8 -4
8 -10 13 -14 10 -13 -8 -18 33 -19 137 -2 146 -15 151 -21 8 -4 -98 -2 -129 9
-143 11 -13 12 -22 3 -43 -14 -30 -15 -47 -3 -40 4 3 11 -34 15 -82 9 -116 13
-148 20 -177 8 -30 -8 -33 -44 -9 -14 8 -4 -5 23 -29 50 -49 55 -62 32 -93
-14 -18 -14 -16 -10 18 3 30 0 40 -15 48 -17 9 -18 7 -16 -17 1 -16 -1 -36 -6
-45 -5 -10 -9 -45 -9 -78 -1 -41 -7 -67 -18 -82 l-18 -21 -23 34 c-30 45 -49
59 -77 59 -12 0 -27 9 -33 20 -9 16 -8 20 5 20 8 0 15 -4 15 -9 0 -5 6 -11 14
-14 11 -4 14 2 12 24 -3 40 -20 56 -42 38 -15 -12 -16 -11 -9 21 4 19 11 41
16 50 21 38 39 95 31 98 -10 3 -3 52 7 52 4 0 27 -17 52 -38 43 -36 43 -36 25
-7 -11 17 -26 41 -33 55 -10 20 -13 21 -13 7 0 -11 -6 -17 -12 -14 -18 5 -15
54 11 172 32 152 30 147 46 141 12 -4 13 -2 3 14 -10 15 -6 45 15 151 15 73
30 135 34 138 5 3 9 22 10 41 7 138 16 226 23 234 5 5 6 15 3 22 -3 8 -1 40 3
72 l9 57 5 -70 c3 -38 3 -72 0 -75z m285 63 c6 -10 16 -22 23 -28 14 -11 40
-76 68 -170 9 -27 22 -65 31 -84 12 -26 13 -39 4 -59 -16 -34 -25 -22 -57 78
-14 47 -37 105 -50 130 -13 25 -24 55 -24 67 0 13 -4 23 -10 23 -5 0 -10 9
-10 21 0 28 -23 19 -31 -12 l-6 -24 -10 25 c-6 14 -13 42 -16 63 l-6 37 42
-24 c23 -14 47 -33 52 -43z m145 -368 c0 -8 -5 -15 -11 -15 -6 0 2 -15 19 -34
16 -19 36 -51 42 -72 7 -21 24 -60 37 -87 14 -27 23 -58 20 -69 -4 -13 -1 -18
8 -15 9 4 15 -10 20 -46 4 -29 9 -61 11 -72 2 -11 5 -36 8 -55 l4 -35 -24 30
c-13 17 -24 35 -24 40 0 6 -7 23 -16 40 -8 16 -13 38 -11 47 3 10 2 16 -3 13
-4 -2 -17 23 -29 58 -12 34 -38 100 -57 147 -30 76 -33 89 -22 113 14 29 28
36 28 12z m-3162 -52 c71 -43 103 -63 185 -117 85 -56 144 -85 178 -86 9 0 44
-14 78 -32 43 -22 58 -34 49 -40 -8 -6 -4 -7 11 -2 22 6 38 -7 133 -107 60
-64 102 -116 95 -118 -6 -2 -15 -9 -19 -14 -7 -11 -17 -14 -83 -24 -22 -3 -46
-10 -53 -16 -7 -6 -34 -10 -60 -9 -30 0 -55 -6 -72 -18 -26 -19 -26 -18 -46 7
-10 14 -22 37 -25 52 l-6 26 -13 -27 c-9 -20 -17 -25 -25 -18 -14 11 -46 3
-57 -15 -12 -20 -113 -19 -133 1 -10 10 -33 19 -51 21 -19 1 -44 9 -56 17 -12
9 -32 13 -48 9 -34 -6 -43 7 -35 50 6 31 8 33 51 32 30 -1 44 3 44 12 0 7 6
13 13 13 8 0 8 3 -2 9 -16 11 -7 43 11 40 27 -3 38 2 38 16 0 18 -17 20 -23 3
-6 -19 -42 4 -41 26 3 33 4 36 19 36 8 0 15 6 15 14 0 8 6 16 13 19 16 6 -3
27 -29 31 -24 4 -31 36 -11 48 13 7 10 14 -20 45 -33 32 -35 37 -20 48 17 12
24 31 8 21 -4 -3 -13 6 -19 19 -11 25 -52 36 -52 14 0 -5 6 -7 13 -3 6 4 4 -2
-5 -13 -22 -24 -23 -39 -3 -47 8 -3 15 -10 15 -17 0 -6 -7 -9 -15 -5 -13 5
-15 -14 -15 -129 0 -81 -4 -136 -10 -140 -7 -4 -9 7 -6 32 2 21 5 116 5 212
l1 173 25 -16 c14 -9 37 -23 53 -33z m-662 -24 c14 -1 26 -13 37 -38 20 -45
34 -161 19 -161 -5 0 -10 -16 -9 -35 1 -19 -2 -37 -6 -41 -8 -9 -126 26 -134
39 -3 5 -9 4 -13 -2 -10 -17 -70 19 -67 40 2 8 18 29 37 46 33 30 38 60 5 33
-19 -16 -30 -7 -21 17 5 11 9 14 14 6 5 -7 21 1 47 24 22 19 32 32 23 29 -10
-3 -26 -9 -35 -12 -15 -6 -16 -4 -5 7 6 7 12 17 12 22 0 14 -20 -3 -50 -44
-21 -30 -29 -35 -34 -23 -7 19 10 54 27 54 7 0 25 11 42 24 21 17 38 22 60 19
16 -2 39 -4 51 -4z m2631 -29 c11 -17 10 -18 -5 -13 -13 4 -14 3 -6 -6 6 -7
20 -14 30 -15 11 -2 19 -7 19 -12 0 -5 19 -34 41 -64 23 -30 49 -70 58 -87 9
-18 19 -33 22 -33 3 0 31 23 62 50 31 28 62 50 69 50 7 0 13 3 13 8 0 4 15 14
32 22 18 7 52 34 76 58 24 24 46 41 49 38 15 -14 -98 -126 -128 -126 -43 0
-283 -207 -251 -218 8 -2 5 -10 -10 -23 -16 -12 -19 -21 -12 -26 6 -5 15 -38
18 -75 7 -64 7 -68 -13 -68 -19 0 -21 6 -21 74 0 41 4 86 10 100 6 18 5 33 -7
56 -11 23 -12 35 -4 43 8 8 11 5 11 -10 0 -55 11 -56 55 -6 l42 48 -39 58
c-52 77 -97 126 -132 148 -25 15 -27 19 -13 25 9 3 14 10 11 15 -3 5 -1 9 3 9
5 0 14 -9 20 -20z m-617 -133 c-29 -23 -90 -170 -76 -184 3 -4 17 4 31 17 14
13 25 20 25 15 0 -4 11 4 25 19 14 15 25 31 25 36 0 5 9 24 19 41 20 32 20 32
25 8 3 -13 7 -53 10 -89 l6 -65 -42 -19 c-72 -33 -190 -55 -153 -28 6 4 16 17
23 30 11 21 10 22 -18 22 -28 0 -29 -2 -18 -20 10 -15 10 -22 0 -32 -6 -6 -15
-9 -19 -5 -11 12 -7 107 5 119 7 7 12 17 12 23 0 5 -4 3 -10 -5 -5 -8 -12 -12
-15 -8 -4 3 4 16 17 28 13 13 17 20 11 16 -17 -10 -16 9 2 44 9 18 26 32 43
36 15 3 38 9 52 14 30 9 40 3 20 -13z m2137 -92 c28 -27 39 -57 48 -128 7 -52
9 -56 26 -46 19 10 19 11 -1 39 -25 35 -25 40 0 40 22 0 22 1 25 -117 2 -62 0
-73 -14 -73 -14 -1 -14 -2 2 -14 14 -11 17 -25 15 -58 l-3 -43 -23 23 c-19 19
-21 26 -11 38 9 11 8 14 -3 14 -9 0 -20 18 -27 43 -7 23 -19 49 -26 57 -22 26
-28 60 -12 60 13 0 13 5 4 30 -11 28 -12 29 -31 12 -17 -14 -19 -14 -8 -1 9
12 10 24 2 44 -8 21 -8 30 1 35 15 10 -15 67 -40 75 -23 7 -36 22 -46 55 -7
21 -2 19 46 -20 30 -24 64 -54 76 -65z m-732 -137 c3 -40 11 -102 17 -138 6
-36 12 -81 12 -100 1 -30 5 -36 31 -41 28 -6 28 -7 5 -8 -24 -2 -24 -3 -4 -11
12 -5 27 -23 33 -40 10 -30 9 -31 -7 -19 -29 22 -52 48 -52 57 0 5 -11 14 -24
20 -23 10 -25 16 -25 91 0 72 -25 253 -37 273 -3 4 -2 13 2 20 16 25 42 -31
49 -104z m-690 -388 c4 -63 9 -118 12 -122 2 -5 -3 -8 -11 -8 -9 0 -16 -7 -16
-15 0 -9 6 -12 15 -9 12 5 15 -6 16 -62 1 -38 2 -93 3 -121 2 -45 0 -53 -16
-53 -10 0 -18 5 -18 11 0 5 5 7 10 4 6 -4 10 7 10 25 0 18 -4 29 -10 25 -6 -4
-10 6 -10 24 0 16 6 32 13 35 8 3 7 8 -5 16 -14 9 -18 25 -18 75 0 40 4 65 11
65 6 0 3 7 -5 16 -10 9 -16 33 -16 57 0 23 -2 74 -5 112 -4 48 -2 64 4 50 9
-19 10 -19 10 3 1 13 -5 22 -14 22 -20 0 -19 17 3 29 14 8 18 4 24 -27 3 -20
10 -89 13 -152z m1344 -8 c0 -15 -4 -35 -8 -46 -7 -17 -8 -17 -23 6 -9 14 -23
25 -32 25 -10 0 -3 -14 23 -42 36 -39 39 -47 45 -123 4 -45 12 -84 17 -87 5
-4 9 -17 9 -31 0 -13 4 -24 9 -24 9 0 32 -102 25 -109 -11 -12 -29 24 -29 59
0 43 -9 53 -18 20 -3 -11 -10 -20 -16 -20 -12 0 -19 24 -25 88 -3 26 -12 50
-23 59 -16 13 -16 14 0 9 12 -4 17 0 17 13 0 11 -5 21 -10 23 -6 2 -11 18 -13
36 -1 17 -7 32 -13 32 -22 0 -23 28 -2 33 11 3 17 10 13 16 -3 6 -11 9 -16 6
-5 -4 -9 1 -9 9 0 20 -14 20 -34 1 -15 -15 -41 -21 -32 -7 2 4 -4 8 -15 8 -13
0 -18 -5 -14 -14 4 -10 0 -12 -11 -8 -8 3 -25 6 -37 6 -20 1 -20 2 -4 11 9 6
27 12 39 14 12 3 26 9 32 15 5 5 21 10 36 10 27 1 60 21 60 38 0 15 22 21 43
10 10 -5 17 -20 16 -36z m-750 -149 c-2 -10 4 -34 13 -54 9 -20 18 -44 21 -55
5 -18 20 -162 19 -194 0 -8 4 -35 9 -59 13 -57 -4 -82 -33 -51 -11 12 -17 28
-14 36 3 8 -1 17 -9 20 -8 4 -12 10 -9 15 3 5 -1 9 -8 9 -17 1 -48 64 -38 79
4 8 -2 22 -16 36 -27 27 -29 42 -13 98 9 34 66 137 76 137 2 0 3 -8 2 -17z"/>
<path d="M5930 2371 c-8 -6 -18 -8 -22 -5 -4 3 -20 -2 -36 -10 -16 -8 -67 -17
-113 -20 -46 -3 -97 -9 -114 -14 -16 -5 -120 -10 -230 -11 -110 -1 -213 -4
-230 -6 -16 -2 -57 -7 -89 -10 -33 -4 -73 -13 -88 -21 -17 -9 -70 -17 -126
-21 -53 -2 -119 -11 -147 -17 -28 -8 -80 -11 -121 -9 -50 4 -90 0 -131 -12
-67 -20 -99 -25 -165 -27 l-47 -1 59 -44 c47 -34 69 -43 102 -44 67 -1 281
-39 333 -59 17 -6 52 -13 79 -15 26 -2 78 -13 115 -24 36 -11 98 -25 136 -31
39 -7 84 -17 100 -23 17 -7 35 -12 40 -12 28 -1 54 -19 64 -43 9 -21 34 -39
99 -71 48 -23 101 -56 117 -72 89 -86 132 -118 170 -124 53 -10 81 -27 135
-85 43 -46 48 -48 113 -54 l67 -7 0 451 0 450 -27 0 c-16 0 -35 -4 -43 -9z"/>
</g>
</svg>
